<svg width="242" height="41" viewBox="0 0 242 41" fill="none" xmlns="http://www.w3.org/2000/svg">
<path d="M8.38775 29.4012C8.38775 33.7592 8.72917 37.1648 9.43191 39.6132C8.51343 39.9416 7.34602 40.1178 5.93114 40.1178C4.12465 40.1178 2.95523 39.8491 2.31511 39.4134C1.7452 39.0256 1.37802 38.2464 1.37802 36.8582C1.37802 36.2883 1.40468 34.9711 1.45849 32.8983C1.5123 30.8254 1.53929 29.1586 1.53929 27.8814V16.9937C1.53929 11.557 1.241 7.62922 0.619394 5.26202C2.15014 4.8545 3.53461 4.65328 4.7759 4.65065C7.30377 4.65075 9.11626 5.41073 10.3102 6.85765C12.9521 10.1298 16.9388 16.4103 22.2783 25.7302L23.2242 27.3812L23.2121 25.4785L23.1584 16.9937C23.1584 16.9931 23.1584 16.9926 23.1584 16.992C23.1584 12.2434 23.0412 8.24702 22.806 5.00557C24.1012 4.79975 25.0562 4.70398 25.6777 4.70398C27.4371 4.70398 28.6744 4.96503 29.4564 5.42399C30.197 5.85872 30.5534 6.48209 30.5534 7.35919V7.35922C30.5534 7.35954 30.5534 7.36183 30.5533 7.36685L30.5527 7.38806L30.5503 7.45965C30.5482 7.5195 30.5448 7.60144 30.5404 7.70586C30.5315 7.91456 30.5181 8.21042 30.5002 8.59348C30.4644 9.35946 30.4106 10.4722 30.3389 11.9297C30.1955 14.8465 30.1233 17.0342 30.1233 18.4602V27.7659C30.1233 32.5673 30.2382 36.5916 30.4689 39.8359C29.5223 40.0202 28.5599 40.1146 27.5946 40.1178C24.5637 40.1177 22.6731 39.2859 21.708 37.7873C20.2902 35.5848 18.6677 32.8709 16.84 29.6441C13.4711 23.6534 10.9604 19.3455 9.31079 16.7272L8.38775 15.2621V16.9937V29.4012Z" fill="white" stroke="black"/>
<path d="M55.8696 33.9386C54.2797 35.6143 52.1189 36.4339 49.4467 36.4339H49.4457C47.8 36.4307 46.3876 35.9219 45.2421 34.8926C44.0495 33.8211 43.5083 32.1504 43.5083 30.0056V29.4859L44.0277 29.506C45.8651 29.5771 47.1103 29.6123 47.7982 29.6123C51.6324 29.6123 54.4192 28.9458 56.2355 27.6881C58.0186 26.4535 58.9275 24.6063 58.9275 22.0598C58.9275 19.5563 57.9988 17.7207 56.1805 16.4827C54.2971 15.2013 52.0568 14.5518 49.4377 14.5518C47.167 14.5518 45.0539 15.0002 43.1091 15.9091L43.1051 15.9109L43.105 15.9109C41.1703 16.7944 39.5184 18.2497 38.153 20.3015C36.8068 22.3245 36.1223 24.772 36.1223 27.668L55.8696 33.9386ZM55.8696 33.9386C56.4678 34.2666 56.9958 34.7086 57.4229 35.2401C57.9005 35.8512 58.1122 36.4205 58.1122 36.9738C58.1122 37.8043 57.6317 38.5343 56.4409 39.1414C55.1986 39.7747 53.9827 40.1468 52.8185 40.2903C51.6637 40.4271 50.5018 40.4972 49.3388 40.5C45.4113 40.4999 42.2431 39.432 39.7912 37.3317C37.3768 35.2636 36.1253 32.0772 36.1223 27.6681L55.8696 33.9386ZM43.5084 26.1849L43.4999 26.7293L44.0431 26.6915C45.0642 26.6204 45.8027 26.5574 46.2393 26.5021L46.2393 26.5022L46.2482 26.5009C46.8718 26.4105 47.4904 26.2891 48.1018 26.1371C48.922 25.9516 49.5805 25.6785 50.0211 25.2863C50.4306 24.9217 50.7775 24.4304 51.0894 23.8398C51.4343 23.1867 51.5863 22.3977 51.5863 21.5088L51.5863 21.5082C51.5855 20.8045 51.3278 20.1255 50.8617 19.5968C50.3618 19.0258 49.7354 18.7246 48.9987 18.7246C47.5092 18.7246 46.2203 19.397 45.1564 20.6731C44.0695 21.9767 43.5452 23.8397 43.5084 26.1849Z" fill="white" stroke="black"/>
<path d="M79.4503 16.5677C79.4513 16.1026 79.4172 15.6383 79.3481 15.1787C80.3692 14.7575 81.4666 14.5438 82.5752 14.5518H82.5788C84.0433 14.5518 85.0376 14.7816 85.6242 15.1572C86.1477 15.4925 86.46 16.0784 86.46 17.0471C86.46 19.0582 85.6558 22.3599 83.9897 27.0015L83.9896 27.0017C82.33 31.631 80.6566 35.035 78.9886 37.2702L78.9885 37.2702L78.983 37.2778C77.6312 39.1618 75.6359 40.1202 72.9139 40.1178C71.8367 40.1088 70.7646 39.9758 69.719 39.7218C68.899 35.7722 67.5497 31.2777 65.6751 26.2405C64.7134 23.6564 63.8322 21.5361 63.0313 19.8842C62.3622 18.5041 61.7381 17.427 61.1562 16.6771C62.6545 15.4337 64.1758 14.8389 65.7266 14.8362C66.6142 14.8363 67.3675 15.0783 68.0064 15.5522C68.6497 16.0294 69.2061 16.7637 69.6557 17.7929C71.4731 22.2301 73.1114 27.1965 74.5696 32.6936L74.9663 34.1889L75.5198 32.7443C78.1242 25.9468 79.4501 20.545 79.4503 16.5677ZM79.4503 16.5677C79.4503 16.5679 79.4503 16.5681 79.4503 16.5683L78.9503 16.5671H79.4503C79.4503 16.5673 79.4503 16.5675 79.4503 16.5677Z" fill="white" stroke="black"/>
<path d="M110.021 33.9386C108.431 35.6143 106.27 36.4339 103.598 36.4339H103.597C101.951 36.4307 100.539 35.9219 99.3932 34.8926C98.2006 33.8211 97.6595 32.1504 97.6595 30.0056V29.4859L98.1788 29.506C100.016 29.5771 101.261 29.6123 101.949 29.6123C105.783 29.6123 108.57 28.9458 110.387 27.6881C112.17 26.4535 113.079 24.6063 113.079 22.0598C113.079 19.5563 112.15 17.7207 110.332 16.4827C108.448 15.2013 106.208 14.5518 103.589 14.5518C101.318 14.5518 99.205 15.0002 97.2602 15.9091L97.2562 15.9109L97.2562 15.9109C95.3214 16.7944 93.6695 18.2497 92.3041 20.3015C90.9579 22.3245 90.2735 24.772 90.2734 27.668L110.021 33.9386ZM110.021 33.9386C110.619 34.2666 111.147 34.7086 111.574 35.2401C112.052 35.8512 112.263 36.4205 112.263 36.9738C112.263 37.8043 111.783 38.5343 110.592 39.1414C109.35 39.7747 108.134 40.1468 106.97 40.2903C105.815 40.4271 104.653 40.4972 103.49 40.5C99.5624 40.4999 96.3942 39.432 93.9423 37.3317C91.5279 35.2636 90.2764 32.0772 90.2734 27.6681L110.021 33.9386ZM97.6595 26.1849L97.651 26.7293L98.1942 26.6915C99.2153 26.6204 99.9538 26.5574 100.39 26.5021L100.39 26.5022L100.399 26.5009C101.023 26.4105 101.642 26.2891 102.253 26.1371C103.073 25.9516 103.732 25.6785 104.172 25.2863C104.582 24.9217 104.929 24.4304 105.241 23.8398C105.585 23.1867 105.737 22.3977 105.737 21.5088L105.737 21.5082C105.737 20.8045 105.479 20.1254 105.013 19.5967C104.513 19.0257 103.886 18.7246 103.15 18.7246C101.66 18.7246 100.371 19.397 99.3075 20.6731C98.2206 21.9767 97.6963 23.8397 97.6595 26.1849Z" fill="white" stroke="black"/>
<path d="M121.75 0.00890946L121.746 0.508899C120.423 0.500412 119.107 0.691803 117.843 1.0758C118.081 4.33499 118.2 8.46298 118.2 13.4563V28.4769C118.2 29.7187 118.173 31.3236 118.119 33.2812L121.75 0.00890946ZM121.75 0.00890946V0.508909C123.092 0.508909 124.07 0.742607 124.721 1.14517C125.27 1.48492 125.64 2.19518 125.64 3.49298C125.64 3.69238 125.578 5.27473 125.452 8.26252C125.327 11.2415 125.263 13.481 125.263 14.9762V29.8901C125.263 34.302 125.525 37.5449 126.073 39.5697C124.794 39.9259 123.472 40.1104 122.142 40.1178C120.449 40.1177 119.41 39.8135 118.883 39.346C118.346 38.8708 118.039 38.145 118.039 37.0804C118.039 36.5109 118.065 35.2472 118.119 33.2813L121.75 0.00890946Z" fill="white" stroke="black"/>
<path d="M147.256 16.5683C147.257 16.1031 147.223 15.6387 147.154 15.1789C148.175 14.7584 149.272 14.5446 150.381 14.5518L150.384 14.0518V14.5518C151.849 14.5518 152.843 14.7816 153.43 15.1572C153.953 15.4925 154.265 16.0784 154.265 17.047C154.265 19.0582 153.461 22.3599 151.795 27.0015L151.795 27.0017C150.135 31.631 148.462 35.035 146.794 37.2702L146.794 37.2702L146.788 37.2778C145.437 39.1617 143.441 40.1202 140.72 40.1178C139.642 40.1088 138.57 39.9758 137.524 39.7218C136.704 35.7722 135.355 31.2777 133.481 26.2405C132.519 23.6564 131.638 21.5361 130.837 19.8841C130.168 18.5041 129.543 17.427 128.962 16.6771C130.46 15.4337 131.981 14.8388 133.532 14.8362C134.42 14.8363 135.173 15.0783 135.812 15.5522C136.455 16.0294 137.012 16.7637 137.461 17.7929C139.279 22.2301 140.917 27.1965 142.375 32.6936L142.772 34.1885L143.325 32.7443C145.929 25.9501 147.255 20.5485 147.256 16.5683ZM147.256 16.5683L146.756 16.5671M147.256 16.5683C147.256 16.5679 147.256 16.5675 147.256 16.5671H146.756M146.756 16.5671C146.757 16.0003 146.703 15.4348 146.594 14.8784L146.756 16.5671Z" fill="white" stroke="black"/>
<path d="M177.835 33.9386C176.245 35.6143 174.084 36.4339 171.412 36.4339H171.411C169.765 36.4307 168.353 35.9219 167.207 34.8926C166.015 33.8211 165.474 32.1504 165.474 30.0056V29.4859L165.993 29.506C167.83 29.5771 169.076 29.6123 169.763 29.6123C173.598 29.6123 176.385 28.9458 178.201 27.6881C179.984 26.4535 180.893 24.6063 180.893 22.0598C180.893 19.5563 179.964 17.7207 178.146 16.4827C176.262 15.2013 174.022 14.5518 171.403 14.5518C169.132 14.5518 167.019 15.0002 165.074 15.9091L165.07 15.9109L165.07 15.9109C163.136 16.7944 161.484 18.2497 160.118 20.3015C158.772 22.3245 158.088 24.772 158.088 27.668L177.835 33.9386ZM177.835 33.9386C178.433 34.2666 178.961 34.7086 179.388 35.2401C179.866 35.8512 180.077 36.4205 180.077 36.9738C180.077 37.8043 179.597 38.5343 178.406 39.1414C177.164 39.7747 175.948 40.1468 174.784 40.2903C173.629 40.4271 172.467 40.4972 171.304 40.5C167.377 40.4999 164.208 39.432 161.757 37.3317C159.342 35.2636 158.091 32.0772 158.088 27.6681L177.835 33.9386ZM165.474 26.1849L165.465 26.7293L166.008 26.6915C167.03 26.6204 167.768 26.5574 168.205 26.5021L168.205 26.5022L168.214 26.5009C168.837 26.4105 169.456 26.2891 170.067 26.1371C170.887 25.9516 171.546 25.6785 171.986 25.2863C172.396 24.9217 172.743 24.4304 173.055 23.8398C173.4 23.1867 173.552 22.3977 173.552 21.5088V21.5082C173.551 20.8045 173.293 20.1254 172.827 19.5967C172.327 19.0257 171.701 18.7246 170.964 18.7246C169.475 18.7246 168.186 19.397 167.122 20.6731C166.035 21.9767 165.511 23.8397 165.474 26.1849Z" fill="white" stroke="black"/>
<path d="M185.761 15.4751C187.038 15.1145 188.255 14.934 189.402 14.934C190.678 14.934 191.61 15.1903 192.255 15.6448C192.886 16.0899 193.297 16.7642 193.461 17.7265L193.623 18.6754L194.306 17.9975C196.597 15.7247 199.18 14.608 202.071 14.6051C204.46 14.6052 206.38 15.2841 207.888 16.6054C209.368 17.9022 210.127 19.768 210.127 22.2731V22.2729C210.127 22.2729 210.127 22.2743 210.127 22.2777L210.127 22.2935L210.126 22.3489L210.122 22.5483C210.119 22.7203 210.114 22.9695 210.107 23.2961C210.094 23.9492 210.074 24.9112 210.047 26.1821C209.993 28.725 209.966 30.652 209.966 31.961C209.966 34.8877 210.237 37.424 210.786 39.5618C209.43 39.9283 208.029 40.1154 206.622 40.1178C205.205 40.1177 204.236 39.8487 203.63 39.3903C203.051 38.9518 202.732 38.2852 202.732 37.2937C202.732 35.9959 202.786 33.6005 202.893 30.101C203.001 26.6059 203.055 24.484 203.055 23.7485C203.055 22.2083 202.741 20.9565 202.04 20.0845C201.345 19.2204 200.422 18.7779 199.321 18.7779C197.597 18.7779 195.775 19.7723 193.869 21.5816L193.71 21.7327L193.714 21.952C193.785 26.6002 193.821 29.9476 193.821 32.0143C193.821 34.9962 193.899 37.643 194.063 39.9385C193.064 40.0168 192.167 40.0556 191.365 40.0556C189.561 40.0556 188.28 39.8381 187.467 39.451C187.068 39.2605 186.801 39.0383 186.634 38.7992C186.47 38.5643 186.381 38.2855 186.381 37.9425C186.381 37.8127 186.426 36.5578 186.515 34.1483L185.761 15.4751ZM185.761 15.4751C186.045 16.4129 186.253 17.7001 186.397 19.3134C186.571 21.2553 186.655 23.7099 186.65 26.673C186.65 29.2591 186.605 31.7508 186.515 34.1483L185.761 15.4751Z" fill="white" stroke="black"/>
<path d="M232.031 20.4245H232.531C232.531 22.2643 232.567 26.9247 232.639 34.4093L232.641 34.6045L232.51 34.7493C231.419 35.9553 229.98 36.5494 228.241 36.5494C226.601 36.5494 225.293 35.5381 224.293 33.7615C223.29 31.9763 222.805 29.7339 222.805 27.0637C222.805 24.6462 223.292 22.6377 224.312 21.0994L232.031 20.4245ZM232.031 20.4245L232.326 20.021C231.161 19.1681 229.922 18.7246 228.627 18.7246C226.802 18.7246 225.35 19.5329 224.312 21.0993L232.031 20.4245ZM232.854 10.3989C232.854 6.65358 232.723 3.54565 232.459 1.08014C233.924 0.686342 234.959 0.5 235.588 0.5C237.249 0.5 238.407 0.786133 239.136 1.28405C239.832 1.75857 240.195 2.46349 240.195 3.48407C240.195 5.61815 240.112 9.72954 239.944 15.8246C239.777 21.918 239.693 26.0782 239.693 28.2992C239.693 33.6162 239.989 37.4673 240.607 39.8006C239.105 40.1484 237.891 40.3134 236.95 40.3134C235.454 40.3134 234.503 40.0309 233.987 39.5892C233.428 39.1105 233.037 38.4385 232.832 37.5465L232.627 36.6517L231.987 37.3092C231.071 38.2496 229.996 39.0245 228.812 39.5991L228.811 39.5992C227.599 40.1877 226.473 40.4733 225.437 40.4733C222.801 40.4733 220.514 39.2924 218.562 36.8483L218.56 36.8469C216.621 34.4375 215.631 31.3523 215.625 27.5522C215.625 23.9188 216.637 20.8467 218.644 18.3081C220.642 15.7805 223.1 14.5462 226.045 14.5518H226.046C227.994 14.5518 229.967 15.1328 231.992 16.3308L232.72 16.7618L232.746 15.9159C232.818 13.5941 232.854 11.7544 232.854 10.3989Z" fill="white" stroke="black"/>
</svg>
